<?xml version="1.0" standalone="no"?>
<!DOCTYPE svg PUBLIC "-//W3C//DTD SVG 20010904//EN"
 "http://www.w3.org/TR/2001/REC-SVG-20010904/DTD/svg10.dtd">
<svg version="1.0" xmlns="http://www.w3.org/2000/svg"
 width="512.000000pt" height="512.000000pt" viewBox="0 0 512.000000 512.000000"
 preserveAspectRatio="xMidYMid meet">

<g transform="translate(0.000000,512.000000) scale(0.100000,-0.100000)"
fill="#000000" stroke="none">
<path d="M1195 5101 c-99 -46 -146 -139 -123 -246 9 -42 21 -61 77 -117 36
-37 586 -540 1221 -1118 635 -579 1155 -1056 1155 -1060 0 -4 -520 -481 -1155
-1060 -635 -578 -1185 -1081 -1221 -1118 -56 -56 -68 -75 -77 -117 -12 -55 -2
-123 23 -162 59 -90 177 -127 270 -84 25 11 518 453 1295 1161 690 628 1281
1168 1313 1199 45 44 61 68 73 109 18 62 12 126 -17 184 -25 49 -2606 2403
-2664 2429 -51 24 -119 24 -170 0z m151 -156 c32 -24 2387 -2167 2488 -2264
32 -31 65 -71 72 -89 13 -29 13 -37 -3 -71 -14 -29 -339 -331 -1288 -1196
-698 -636 -1285 -1164 -1303 -1171 -69 -30 -125 35 -87 101 11 19 535 503
1165 1076 630 573 1173 1069 1208 1102 l62 61 0 66 0 66 -62 61 c-35 33 -578
529 -1208 1102 -630 573 -1154 1057 -1165 1076 -24 41 -13 83 25 102 29 15 54
9 96 -22z"/>
</g>
</svg>
