<?xml version="1.0" standalone="no"?>
<!DOCTYPE svg PUBLIC "-//W3C//DTD SVG 20010904//EN"
 "http://www.w3.org/TR/2001/REC-SVG-20010904/DTD/svg10.dtd">
<svg version="1.0" xmlns="http://www.w3.org/2000/svg"
 width="10416.000000pt" height="10416.000000pt" viewBox="0 0 10416.000000 10416.000000"
 preserveAspectRatio="xMidYMid meet">

<g transform="translate(0.000000,10416.000000) scale(0.100000,-0.100000)"
fill="#000000" stroke="none">
<path d="M52038 95603 c243 -2 641 -2 885 0 243 1 44 2 -443 2 -487 0 -686 -1
-442 -2z"/>
<path d="M59408 95593 c666 -2 1758 -2 2425 0 666 1 121 2 -1213 2 -1334 0
-1879 -1 -1212 -2z"/>
<path d="M39538 95573 c7 -3 16 -2 19 1 4 3 -2 6 -13 5 -11 0 -14 -3 -6 -6z"/>
<path d="M65388 74273 c6 -2 18 -2 25 0 6 3 1 5 -13 5 -14 0 -19 -2 -12 -5z"/>
<path d="M58872 62960 c0 -14 2 -19 5 -12 2 6 2 18 0 25 -3 6 -5 1 -5 -13z"/>
<path d="M29648 41103 c661 -2 1743 -2 2405 0 661 1 120 2 -1203 2 -1323 0
-1864 -1 -1202 -2z"/>
<path d="M91308 31013 c507 -2 1337 -2 1845 0 507 1 92 2 -923 2 -1015 0
-1430 -1 -922 -2z"/>
<path d="M9358 29923 c1311 -2 3453 -2 4760 0 1307 1 235 2 -2383 2 -2618 0
-3688 -1 -2377 -2z"/>
<path d="M28398 29913 c1311 -2 3453 -2 4760 0 1307 1 235 2 -2383 2 -2618 0
-3688 -1 -2377 -2z"/>
<path d="M47428 29903 c1311 -2 3453 -2 4760 0 1307 1 235 2 -2383 2 -2618 0
-3688 -1 -2377 -2z"/>
<path d="M64238 29893 c84 -2 219 -2 300 0 81 1 12 3 -153 3 -165 0 -231 -2
-147 -3z"/>
<path d="M1582 29865 c0 -16 2 -22 5 -12 2 9 2 23 0 30 -3 6 -5 -1 -5 -18z"/>
<path d="M93973 29763 c1572 -2 4142 -2 5710 0 1569 1 283 2 -2858 2 -3140 0
-4424 -1 -2852 -2z"/>
<path d="M96731 20014 c0 -11 3 -14 6 -6 3 7 2 16 -1 19 -3 4 -6 -2 -5 -13z"/>
<path d="M71102 18565 c0 -16 2 -22 5 -12 2 9 2 23 0 30 -3 6 -5 -1 -5 -18z"/>
<path d="M9853 18523 c834 -2 2200 -2 3035 0 834 1 151 2 -1518 2 -1669 0
-2352 -1 -1517 -2z"/>
<path d="M33493 18513 c2099 -2 5535 -2 7635 0 2099 1 381 2 -3818 2 -4199 0
-5917 -1 -3817 -2z"/>
<path d="M62933 18503 c1495 -2 3939 -2 5430 0 1492 1 269 2 -2718 2 -2986 0
-4207 -1 -2712 -2z"/>
<path d="M16470 9798 c0 -5 16430 -8 36510 -8 20081 0 36510 3 36510 8 0 4
-16429 7 -36510 7 -20080 0 -36510 -3 -36510 -7z"/>
<path d="M14380 8586 c0 -2 8 -10 18 -17 15 -13 16 -12 3 4 -13 16 -21 21 -21
13z"/>
<path d="M33378 8553 c10429 -2 27495 -2 37925 0 10429 1 1896 2 -18963 2
-20859 0 -29392 -1 -18962 -2z"/>
</g>
</svg>
