<?xml version="1.0" standalone="no"?>
<!DOCTYPE svg PUBLIC "-//W3C//DTD SVG 20010904//EN"
 "http://www.w3.org/TR/2001/REC-SVG-20010904/DTD/svg10.dtd">
<svg version="1.0" xmlns="http://www.w3.org/2000/svg"
 width="500.000000pt" height="500.000000pt" viewBox="0 0 500.000000 500.000000"
 preserveAspectRatio="xMidYMid meet">

<g transform="translate(0.000000,500.000000) scale(0.100000,-0.100000)"
fill="#000000" stroke="none">
<path d="M2340 4330 c-79 -137 -147 -247 -151 -242 -4 4 -69 114 -144 245 -80
137 -142 234 -147 229 -14 -14 -1810 -3126 -1811 -3137 0 -6 71 -130 159 -277
l159 -268 282 -2 282 -3 -130 -225 c-72 -124 -133 -231 -136 -237 -4 -10 363
-13 1815 -13 l1820 0 155 275 155 275 -134 232 c-74 127 -134 232 -134 234 0
2 123 5 273 6 l273 3 -906 1575 -907 1575 -315 3 -315 2 -143 -250z m1232
-668 c268 -466 660 -1147 872 -1515 l384 -667 -243 0 -243 0 -597 1036 c-329
569 -601 1032 -605 1027 -4 -4 -75 -126 -157 -269 l-150 -262 316 -548 c174
-302 503 -873 731 -1268 228 -396 417 -723 418 -728 2 -4 -785 -8 -1748 -8
-1120 0 -1750 3 -1748 10 2 5 55 99 118 209 l115 201 1189 0 c1086 0 1188 1
1182 16 -10 27 -278 498 -291 513 -11 11 -263 13 -1483 15 -809 1 -1473 4
-1475 6 -4 4 1689 2943 1734 3010 15 22 18 18 142 -199 l128 -222 -591 -1025
c-324 -564 -590 -1027 -590 -1030 0 -2 140 -3 311 -2 l310 3 737 1272 c405
700 739 1273 742 1273 3 0 224 -382 492 -848z"/>
</g>
</svg>
