<?xml version="1.0" encoding="UTF-8"?>
<svg id="Calque_2" data-name="Calque 2" xmlns="http://www.w3.org/2000/svg" viewBox="0 0 96.78 83.6">
  <g id="Calque_1-2" data-name="Calque 1">
    <path d="m45.06,5c-1.58,2.74-2.94,4.94-3.02,4.84-.08-.08-1.38-2.28-2.88-4.9-1.6-2.74-2.84-4.68-2.94-4.58C35.94.64.02,62.88,0,63.1c0,.12,1.42,2.6,3.18,5.54l3.18,5.36,5.64.04,5.64.06-2.6,4.5c-1.44,2.48-2.66,4.62-2.72,4.74-.08.2,7.26.26,36.3.26h36.4l3.1-5.5,3.1-5.5-2.68-4.64c-1.48-2.54-2.68-4.64-2.68-4.68s2.46-.1,5.46-.12l5.46-.06-18.12-31.5L60.52.1l-6.3-.06-6.3-.04-2.86,5Zm24.64,13.36c5.36,9.32,13.2,22.94,17.44,30.3l7.68,13.34h-9.72l-11.94-20.72c-6.58-11.38-12.02-20.64-12.1-20.54-.08.08-1.5,2.52-3.14,5.38l-3,5.24,6.32,10.96c3.48,6.04,10.06,17.46,14.62,25.36,4.56,7.92,8.34,14.46,8.36,14.56.04.08-15.7.16-34.96.16-22.4,0-35-.06-34.96-.2.04-.1,1.1-1.98,2.36-4.18l2.3-4.02h23.78c21.72,0,23.76-.02,23.64-.32-.2-.54-5.56-9.96-5.82-10.26-.22-.22-5.26-.26-29.66-.3-16.18-.02-29.46-.08-29.5-.12-.08-.08,33.78-58.86,34.68-60.2.3-.44.36-.36,2.84,3.98l2.56,4.44-11.82,20.5c-6.48,11.28-11.8,20.54-11.8,20.6,0,.04,2.8.06,6.22.04l6.2-.06,14.74-25.44C53.12,12.86,59.8,1.4,59.86,1.4s4.48,7.64,9.84,16.96Z"/>
  </g>
</svg>